<svg width="24" height="24" viewBox="0 0 24 24" fill="none" xmlns="http://www.w3.org/2000/svg">
<path d="M0.853552 6.05668C0.53857 5.7417 0 5.96478 0 6.41023V17.6012C0 18.0466 0.538571 18.2697 0.853554 17.9547L6.44901 12.3593C6.64428 12.164 6.64427 11.8474 6.44901 11.6521L0.853552 6.05668Z" fill="#717171"/>
<path d="M2.55843 3.83984C2.11297 3.83984 1.88989 4.37841 2.20487 4.6934L9.96349 12.452C11.0512 13.5397 12.9481 13.5397 14.0358 12.452L21.7944 4.6934C22.1094 4.37841 21.8863 3.83984 21.4409 3.83984H2.55843Z" fill="#717171"/>
<path d="M15.3937 13.8097C14.4884 14.7159 13.2826 15.2161 12.0001 15.2161C10.7175 15.2161 9.51177 14.7159 8.60649 13.8097L8.51364 13.7168C8.31838 13.5216 8.00179 13.5216 7.80653 13.7168L2.21683 19.3065C1.90185 19.6215 2.12493 20.1601 2.57039 20.1601H21.4298C21.8752 20.1601 22.0983 19.6215 21.7833 19.3065L16.1936 13.7168C15.9984 13.5216 15.6818 13.5216 15.4865 13.7168L15.3937 13.8097Z" fill="#717171"/>
<path d="M17.5508 11.6521C17.3556 11.8474 17.3556 12.164 17.5508 12.3593L23.1463 17.9547C23.4613 18.2697 23.9998 18.0466 23.9998 17.6012V6.41023C23.9998 5.96478 23.4613 5.7417 23.1463 6.05668L17.5508 11.6521Z" fill="#717171"/>
</svg>
