<svg width="24" height="24" viewBox="0 0 24 24" fill="none" xmlns="http://www.w3.org/2000/svg">
<path d="M17.841 11.1235C17.7359 11.074 17.6291 11.0263 17.5209 10.9806C17.3325 7.56728 15.4356 5.61312 12.2504 5.59312C12.236 5.59304 12.2217 5.59304 12.2072 5.59304C10.3021 5.59304 8.71762 6.39261 7.74238 7.84759L9.49412 9.0291C10.2227 7.94229 11.366 7.7106 12.2081 7.7106C12.2178 7.7106 12.2276 7.7106 12.2372 7.71069C13.2859 7.71726 14.0773 8.01708 14.5895 8.60175C14.9623 9.02741 15.2116 9.61563 15.335 10.358C14.4052 10.2026 13.3996 10.1548 12.3246 10.2154C9.29627 10.3869 7.34944 12.1235 7.48019 14.5365C7.54654 15.7605 8.16671 16.8135 9.22638 17.5014C10.1223 18.0829 11.2762 18.3673 12.4755 18.3029C14.0593 18.2175 15.3017 17.6234 16.1685 16.537C16.8268 15.712 17.2431 14.6429 17.427 13.2957C18.1817 13.7436 18.7411 14.333 19.05 15.0415C19.5754 16.2459 19.606 18.225 17.9636 19.8385C16.5246 21.252 14.7948 21.8635 12.1807 21.8824C9.28095 21.8612 7.08789 20.9469 5.66203 19.1646C4.32682 17.4958 3.63678 15.0852 3.61103 12C3.63678 8.91473 4.32682 6.5042 5.66203 4.83534C7.08789 3.05311 9.28091 2.13875 12.1807 2.11756C15.1015 2.13891 17.3328 3.05767 18.8132 4.8485C19.5391 5.7267 20.0864 6.8311 20.4472 8.11879L22.5 7.58028C22.0627 5.99528 21.3745 4.62946 20.4381 3.49675C18.5401 1.20084 15.7643 0.0243935 12.1878 0H12.1735C8.60428 0.0243088 5.85959 1.20522 4.01571 3.50991C2.3749 5.5608 1.52853 8.41446 1.50009 11.9916L1.5 12L1.50009 12.0084C1.52853 15.5855 2.3749 18.4393 4.01571 20.4901C5.85959 22.7948 8.60428 23.9757 12.1735 24H12.1878C15.3611 23.9784 17.5978 23.1615 19.4405 21.3514C21.8512 18.9832 21.7787 16.0149 20.9841 14.1926C20.414 12.8859 19.3272 11.8245 17.841 11.1235ZM12.3621 16.1884C11.0349 16.2619 9.65601 15.6761 9.58802 14.4215C9.53763 13.4913 10.2613 12.4532 12.4436 12.3296C12.6935 12.3154 12.9387 12.3085 13.1796 12.3085C13.9723 12.3085 14.7139 12.3842 15.388 12.5291C15.1366 15.6169 13.6616 16.1182 12.3621 16.1884Z" fill="#717171"/>
</svg>
